<svg version="1" xmlns="http://www.w3.org/2000/svg" width="1280" height="1280" viewBox="0 0 960.000000 960.000000"><path d="M453.9 9.4c-.2.2-5.1.7-10.9 1-5.8.4-11.4.9-12.5 1.1-1.1.3-4.7.7-8 1-4.8.5-18.2 2.5-32 4.9-21.1 3.8-53.5 13-77.5 22.1-41.4 15.8-85.1 40-118.5 65.7-50.8 39.2-92.3 86.7-124.5 142.6-4.4 7.7-21 40.6-21 41.7 0 .3-.9 2.5-1.9 4.8-11.8 26-26.5 74.4-30.5 101.2-.4 2.2-1.3 7.8-2.1 12.5-1.7 10.3-2.3 15.5-3.1 24-.3 3.6-.8 8.3-1.1 10.5-.8 7.3-1.1 61.8-.3 70 .4 4.4 1.1 11.1 1.4 15 .3 3.8.8 8.1 1 9.5.4 2.7 1.3 8.6 2.2 16 .9 7.6 6.4 33.9 9.6 46 4.5 17.4 15.6 50.3 20.3 60.7.8 1.7 1.5 3.3 1.5 3.6 0 2.5 18.8 39.8 27.4 54.5 9.8 16.7 26.5 41.4 35.7 52.7 26.1 31.9 43.6 49.7 75.7 76.7 10.9 9.1 36 26.6 53.5 37.2 45.1 27.3 102.7 49.1 153.5 58.2 1.5.3 4.6.9 6.9 1.5 2.4.5 6.8 1.2 10 1.5 3.1.3 6 .7 6.3.9.4.2 3.8.7 7.6 1 3.8.4 7.1.8 7.4 1 1.6 1 28.1 2 50.5 2 23.1 0 35.6-.5 48.2-2 15.2-1.8 30.2-3.9 38.3-5.5 5.2-1 10.6-2.1 12-2.3 20.7-3.9 66-18.4 86.7-27.8 2.3-1 4.5-1.9 4.8-1.9 1.1 0 35.5-17.5 41.7-21.1 3.1-1.9 8.3-4.9 11.5-6.8 9.2-5.4 28.9-18.7 39.6-26.8 71.5-54.2 125.6-126.2 157.2-209.3 9.9-26.1 18.2-55.9 22.9-82.5.3-1.7.8-3.9 1-5 .4-2.1 1.5-9.1 2.1-13.5.2-1.4.8-6.8 1.4-12 .6-5.2 1.3-11.8 1.7-14.5.9-7.8 1.3-63.1.4-72-.4-4.4-1.1-11.2-1.4-15-.3-3.9-.8-8.1-1-9.5-.4-2.7-1.3-8.6-2.2-16-1.3-10.7-7.5-38.8-12.4-56.5-2.9-10.6-10-31.7-13-39-.7-1.7-1.6-3.9-2.1-5-13-32.3-26.8-58.7-44.9-86-6-9.2-18.2-26.2-22.1-31-9.8-12-19.3-23.1-23.8-27.9C774.7 106 722 69.7 653.5 42.1c-1.1-.5-3.3-1.4-5-2.1-11-4.6-33.6-11.7-51-16.1-14.2-3.7-13.6-3.5-28.5-6.4-1.4-.3-4.8-.9-7.6-1.5s-6.6-1.2-8.5-1.4c-1.9-.2-5.3-.7-7.7-1.1-5.7-.9-8.4-1.3-17.2-2-4.1-.4-8.6-.9-10-1.2-2.9-.6-63.6-1.4-64.1-.9zm54.6 47c9.4.6 13.1 1 21.5 2.1 1.9.3 5.5.7 8 1 8.6 1.1 12.5 1.7 13 2 .3.1 2.7.6 5.4.9 2.7.4 10.5 2 17.5 3.5 76.8 17.4 147.7 56.2 203.5 111.6 22.1 21.8 36.7 39.1 52.5 61.9 3.9 5.6 17.1 26.5 17.1 27 0 .2 2.5 4.7 5.5 10s7.1 13.1 9.1 17.4c2 4.2 4.2 9 5.1 10.7 7 14.4 22.4 57.8 24.8 70.4.1.9.8 3.4 1.4 5.6.5 2.2 1.3 5.3 1.5 7 .3 1.6.8 4 1.1 5.2.3 1.3.7 3.1.9 4 .6 2.7 2 10.7 2.1 11.8.2 1.2 1.8 11.8 2 12.5.1.3.5 3.9.9 8 .5 4.1 1 8.2 1.1 9 .2.8.6 7.3 1.1 14.5 1.3 21.9.8 53.5-1.2 70.5-1.5 13.4-2.7 21.6-4.5 31.5-1.1 6-2.2 12.3-2.5 14-.8 4.5-7.2 28.9-9.9 37.5-17.6 56.5-47.6 109.9-86.9 154.5-14.8 16.8-43.6 44.3-54 51.4-1.2.8-2.3 1.7-2.6 2.1-.9 1.1-16.5 12.5-24 17.6-23.7 16.1-57.1 33.7-83 43.7-22.9 8.8-49.1 16.7-67.5 20.1-14.8 2.8-28.1 5-37 6.1-2.7.3-6.3.8-8 1-17.4 2.3-71.7 2.3-84.3.1-.9-.2-4.4-.7-7.7-1-3.3-.4-7.1-.9-8.5-1.1-1.4-.2-4.7-.6-7.4-1-2.7-.3-5.2-.8-5.5-.9-.3-.2-2.8-.7-5.5-1-2.7-.4-7.6-1.3-11-2.1-3.4-.8-7.3-1.6-8.7-1.9-3.8-.6-20-5.1-31-8.5-63.1-19.6-122.9-55.6-170.3-102.6-7.8-7.7-16.2-16.3-18.7-19-38.1-42.4-68.2-94.3-86.5-149-3-9.1-5.7-17.3-5.9-18.3-.2-.9-1.5-6-2.9-11.2-1.4-5.2-2.8-10.9-3.1-12.5-.2-1.7-.7-4-1-5.3-.3-1.2-.7-3-.9-4-.6-2.6-2-10.6-2.1-11.7-.2-1.2-1.8-11.8-2-12.5-.1-.3-.5-3.9-.9-8-.5-4.1-1-8.3-1.2-9.3-2.2-11.8-2.2-64.6 0-83.2.2-1.7.6-5 .9-7.5.3-2.5.9-7.2 1.3-10.5.3-3.3.8-6.2.9-6.5.2-.3.6-2.6 1-5 .3-2.5 1-6.3 1.5-8.5s1.2-5.6 1.5-7.5c.3-1.9 1.1-5.5 1.6-8 .6-2.5 1.2-5.4 1.5-6.4.2-1 2-7.6 3.9-14.5 11.4-39.8 26.5-73.5 49.3-110.2 7.9-12.7 24.4-35.7 31.6-44 1.7-2 5.6-6.5 8.6-10 8.4-9.8 32.5-33.6 42.5-41.9 5-4.1 9.6-8.1 10.4-8.8 5.9-5.7 35-25.8 49.7-34.5 9.4-5.5 35.4-19.4 36.9-19.7.3 0 4-1.6 8.2-3.6 17.2-7.8 54-20.4 70.1-23.9 14.5-3.2 32-6.5 36.7-7.1 3.3-.3 6.2-.8 6.5-.9.5-.3 7-1.1 15.5-2 2.2-.2 9-.7 15-1 6.1-.4 11.1-.8 11.2-.9.5-.4 35.8.2 44.8.8z"/><path d="M387.9 335.2c-55.8 56.1-106.2 106.9-112.1 112.9-13.1 13.2-16.1 18.6-16.6 30.1-.3 6 .1 9.1 1.8 14.3 2.3 7.1 4.2 9.3 29.5 35 11.4 11.6 81.1 82.6 128.1 130.3 14.8 15.1 36.7 37.3 48.6 49.5l21.7 22.2 78.6.1 78.7.1-6.5-6.6c-3.5-3.6-19.7-20.1-36-36.6-16.2-16.5-35.7-36.4-43.3-44.1-7.7-7.8-33.7-34.3-57.9-58.9-74.9-76.1-78.5-79.9-80.9-84-6.3-10.9-6.6-22.4-1-34.4 2.1-4.3 7.6-10.5 26.4-29.6 13.1-13.2 31.2-31.5 40.1-40.7 9-9.1 38.7-39.3 66-67 27.3-27.6 55.8-56.6 63.3-64.3 7.6-7.7 17.4-17.7 21.8-22.1l8.1-8.2h-78.6l-78.5-.1-101.3 102.1z"/></svg>